<?xml version="1.0" standalone="no"?>
<!DOCTYPE svg PUBLIC "-//W3C//DTD SVG 20010904//EN"
 "http://www.w3.org/TR/2001/REC-SVG-20010904/DTD/svg10.dtd">
<svg version="1.0" xmlns="http://www.w3.org/2000/svg"
 width="288.000000pt" height="47.000000pt" viewBox="0 0 288.000000 47.000000"
 preserveAspectRatio="xMidYMid meet">

<g transform="translate(0.000000,47.000000) scale(0.100000,-0.100000)"
fill="#000000" stroke="none">
<path d="M1080 333 c-456 -14 -810 -53 -946 -104 -72 -27 -59 -35 22 -14 119
31 537 67 742 64 l87 -2 -105 -8 c-58 -4 -184 -13 -280 -19 -218 -15 -380 -35
-394 -51 -8 -9 1 -10 39 -5 165 19 322 27 703 35 235 5 465 8 512 5 177 -8
860 -12 855 -5 -2 4 -64 11 -137 14 -73 4 -189 11 -258 17 -69 5 -181 10 -250
10 -69 0 -132 5 -140 10 -13 9 397 15 968 15 78 0 142 3 142 6 0 7 -131 15
-450 29 -191 8 -885 10 -1110 3z"/>
</g>
</svg>
