<?xml version="1.0" standalone="no"?>
<!DOCTYPE svg PUBLIC "-//W3C//DTD SVG 20010904//EN"
 "http://www.w3.org/TR/2001/REC-SVG-20010904/DTD/svg10.dtd">
<svg version="1.0" xmlns="http://www.w3.org/2000/svg"
 width="312.000000pt" height="50.000000pt" viewBox="0 0 312.000000 50.000000"
 preserveAspectRatio="xMidYMid meet">

<g transform="translate(0.000000,50.000000) scale(0.100000,-0.100000)"
fill="#000000" stroke="none">
<path d="M1575 393 c-259 -9 -681 -52 -920 -94 -60 -11 -171 -29 -245 -40
-183 -28 -180 -28 -180 -41 0 -11 129 -6 178 8 18 5 21 3 16 -11 -6 -14 -3
-16 12 -12 10 3 78 13 149 21 72 8 148 18 170 20 22 3 355 10 739 16 580 8
702 12 714 24 12 12 -22 15 -244 21 -252 7 -869 1 -1029 -11 -143 -11 -74 4
95 20 442 42 972 46 1855 14 47 -2 81 1 83 7 1 6 -19 11 -45 13 -27 1 -113 9
-193 17 -270 28 -775 41 -1155 28z"/>
</g>
</svg>
