<?xml version="1.0" standalone="no"?>
<!DOCTYPE svg PUBLIC "-//W3C//DTD SVG 20010904//EN"
 "http://www.w3.org/TR/2001/REC-SVG-20010904/DTD/svg10.dtd">
<svg version="1.0" xmlns="http://www.w3.org/2000/svg"
 width="264.000000pt" height="73.000000pt" viewBox="0 0 264.000000 73.000000"
 preserveAspectRatio="xMidYMid meet">

<g transform="translate(0.000000,73.000000) scale(0.100000,-0.100000)"
fill="#000000" stroke="none">
<path d="M1080 449 c-249 -19 -467 -55 -697 -114 -169 -43 -284 -97 -260 -122
4 -3 64 8 134 25 148 36 250 54 453 79 227 28 872 25 1190 -6 272 -26 497 -37
565 -27 l48 8 -24 23 c-24 23 -110 54 -204 74 -267 57 -865 86 -1205 60z"/>
</g>
</svg>
