<?xml version="1.0" standalone="no"?>
<!DOCTYPE svg PUBLIC "-//W3C//DTD SVG 20010904//EN"
 "http://www.w3.org/TR/2001/REC-SVG-20010904/DTD/svg10.dtd">
<svg version="1.0" xmlns="http://www.w3.org/2000/svg"
 width="288.000000pt" height="48.000000pt" viewBox="0 0 288.000000 48.000000"
 preserveAspectRatio="xMidYMid meet">

<g transform="translate(0.000000,48.000000) scale(0.100000,-0.100000)"
fill="#000000" stroke="none">
<path d="M1660 303 c-346 -14 -754 -84 -958 -163 -93 -36 -100 -37 -112 -5
-11 29 -49 41 -79 25 -17 -9 -21 -8 -21 6 0 10 -5 14 -15 10 -10 -3 -15 1 -15
11 0 12 -16 1 -50 -32 -27 -27 -50 -55 -50 -63 0 -7 5 -10 11 -6 6 3 15 0 20
-7 7 -11 18 -9 58 14 54 30 71 28 86 -6 15 -33 48 -32 133 2 106 42 202 67
373 96 288 48 450 57 1063 61 376 2 572 6 579 13 16 16 3 17 -273 35 -222 14
-539 18 -750 9z"/>
</g>
</svg>
